<svg width="40" height="40" viewBox="0 0 40 40" fill="none" xmlns="http://www.w3.org/2000/svg">
<g id="Icon">
<circle id="Ellipse 2" cx="20" cy="20" r="20" fill="#3E8FD1"/>
<path id="Vector" fill-rule="evenodd" clip-rule="evenodd" d="M29.4584 21.2624C29.6204 20.2713 29.7824 19.2802 29.9417 18.2886C30.0809 17.4235 30.2158 16.5577 30.3507 15.6919C30.4406 15.1148 30.5306 14.5376 30.6218 13.9606C30.7079 13.4149 30.7969 12.8696 30.8859 12.3242C30.9239 12.0915 30.9619 11.8587 30.9996 11.6259C31.0084 11.1633 30.854 10.7779 30.5022 10.4616C29.9396 9.95632 29.312 9.87906 28.6101 10.1653C26.8431 10.8857 25.0749 11.6037 23.3067 12.3216L23.3009 12.3239C23.0395 12.4301 22.778 12.5362 22.5166 12.6424C21.7323 12.9609 20.948 13.2794 20.1638 13.5983C16.1003 15.2506 12.037 16.9035 7.97464 18.5584C7.86608 18.6027 7.75713 18.6463 7.64815 18.6899C7.22159 18.8607 6.79463 19.0316 6.38899 19.2399C5.86852 19.5071 5.87548 20.1528 6.379 20.448C6.55249 20.5498 6.75081 20.6178 6.94489 20.6806C7.48158 20.8536 8.01898 21.0243 8.55634 21.1951C8.60151 21.2094 8.6472 21.2239 8.69237 21.2383C9.36989 21.4536 10.0473 21.6691 10.7229 21.8893C11.9453 22.2877 13.0967 22.1891 14.1831 21.4979C14.8633 21.065 15.5457 20.6353 16.2281 20.2055C16.7968 19.8473 17.3655 19.4892 17.933 19.1292C18.767 18.6001 19.6005 18.0702 20.4339 17.5403C20.553 17.4645 20.672 17.3888 20.7911 17.3131L20.7932 17.3118C21.8673 16.6288 22.9414 15.9458 24.0164 15.2641C24.1314 15.1912 24.2604 15.1145 24.3915 15.0967C24.4933 15.0828 24.6404 15.1315 24.7055 15.2036C24.7449 15.2474 24.6967 15.4126 24.6359 15.4812C24.4488 15.6925 24.2417 15.8888 24.0333 16.0817C23.2363 16.8185 22.4386 17.5547 21.6409 18.291C20.1599 19.6578 18.679 21.0247 17.2021 22.3955C16.4454 23.0977 16.5033 24.0582 17.3356 24.6748C17.5997 24.8707 17.8819 25.0442 18.1641 25.2178C18.284 25.2915 18.4039 25.3653 18.5225 25.4408C19.0127 25.7527 19.5028 26.0649 19.9928 26.3771C21.7003 27.4649 23.4078 28.5527 25.1218 29.631C25.381 29.7938 25.6907 29.9273 25.9941 29.9743C27.1628 30.1562 28.189 29.3537 28.3685 28.1637C28.5584 26.906 28.7491 25.648 28.9501 24.392C29.0966 23.479 29.2454 22.5664 29.3945 21.6537C29.4158 21.5234 29.4371 21.3928 29.4584 21.2624Z" fill="white"/>
</g>
</svg>
